<?xml version="1.0" encoding="UTF-8"?>
<!DOCTYPE svg PUBLIC "-//W3C//DTD SVG 1.1//EN" "http://www.w3.org/Graphics/SVG/1.1/DTD/svg11.dtd">
<svg xmlns="http://www.w3.org/2000/svg" version="1.1" width="1200px" height="1200px" style="shape-rendering:geometricPrecision; text-rendering:geometricPrecision; image-rendering:optimizeQuality; fill-rule:evenodd; clip-rule:evenodd" xmlns:xlink="http://www.w3.org/1999/xlink">
<g><path style="opacity:1" fill="#010101" d="M 319.5,192.5 C 334.482,191.83 349.148,193.664 363.5,198C 386.654,207.954 397.654,225.621 396.5,251C 397.266,281.549 382.932,300.549 353.5,308C 337.064,311.628 320.731,311.294 304.5,307C 283.267,300.434 270.433,286.267 266,264.5C 260.801,223.189 278.634,199.189 319.5,192.5 Z"/></g>
<g><path style="opacity:1" fill="#000000" d="M 616.5,773.5 C 616.217,772.711 615.717,772.044 615,771.5C 614.5,833.166 614.333,894.832 614.5,956.5C 610.637,988.521 592.47,1004.52 560,1004.5C 541.66,1005.95 526.327,999.946 514,986.5C 508.499,978.333 505.166,969.333 504,959.5C 503.333,786.167 503.333,612.833 504,439.5C 506.6,413.931 520.434,398.597 545.5,393.5C 563.013,390.88 579.346,394.047 594.5,403C 605.119,412.071 611.119,423.571 612.5,437.5C 612.168,447.522 612.501,457.522 613.5,467.5C 614.107,467.376 614.44,467.043 614.5,466.5C 630.378,438.128 653.378,417.628 683.5,405C 712.019,393.132 741.686,388.799 772.5,392C 849.234,400.454 901.734,440.621 930,512.5C 946.721,560.566 951.721,609.899 945,660.5C 939.806,707.19 922.806,748.857 894,785.5C 861.194,822.317 820.027,842.151 770.5,845C 713.429,849.873 665.596,831.373 627,789.5C 623.241,784.309 619.741,778.976 616.5,773.5 Z"/></g>
<g><path style="opacity:1" fill="#010101" d="M 321.5,393.5 C 337.648,392.361 352.648,395.861 366.5,404C 378.474,414.447 385.307,427.613 387,443.5C 387.667,559.167 387.667,674.833 387,790.5C 383.402,824.765 364.402,842.432 330,843.5C 296.579,841.747 278.579,824.081 276,790.5C 275.333,674.5 275.333,558.5 276,442.5C 279.351,414.989 294.517,398.656 321.5,393.5 Z"/></g>
<g><path style="opacity:1" fill="#353535" d="M 612.5,437.5 C 613.167,447.167 613.833,456.833 614.5,466.5C 614.44,467.043 614.107,467.376 613.5,467.5C 612.501,457.522 612.168,447.522 612.5,437.5 Z"/></g>
<g><path style="opacity:1" fill="#6b6b6b" d="M 616.5,773.5 C 615.833,834.5 615.167,895.5 614.5,956.5C 614.333,894.832 614.5,833.166 615,771.5C 615.717,772.044 616.217,772.711 616.5,773.5 Z"/></g>
</svg>
