<?xml version="1.0" encoding="UTF-8"?>
<!DOCTYPE svg PUBLIC "-//W3C//DTD SVG 1.1//EN" "http://www.w3.org/Graphics/SVG/1.1/DTD/svg11.dtd">
<svg xmlns="http://www.w3.org/2000/svg" version="1.1" width="4000px" height="1000px" style="shape-rendering:geometricPrecision; text-rendering:geometricPrecision; image-rendering:optimizeQuality; fill-rule:evenodd; clip-rule:evenodd" xmlns:xlink="http://www.w3.org/1999/xlink">
<g><path style="opacity:1" fill="#020202" d="M 306.5,273.5 C 319.983,272.319 332.983,274.152 345.5,279C 359.426,286.84 366.426,298.84 366.5,315C 367.704,333.276 360.37,346.609 344.5,355C 330.214,360.393 315.547,361.727 300.5,359C 274.337,351.201 263.504,333.701 268,306.5C 271.037,291.916 279.537,282.083 293.5,277C 297.86,275.417 302.194,274.25 306.5,273.5 Z"/></g>
<g><path style="opacity:1" fill="#010101" d="M 1761.5,273.5 C 1774.47,272.814 1787.13,274.314 1799.5,278C 1812.22,283.388 1819.72,292.888 1822,306.5C 1826.75,338.855 1812.92,356.688 1780.5,360C 1766.32,361.455 1752.99,358.788 1740.5,352C 1730.77,345.044 1725.27,335.544 1724,323.5C 1721.76,295.608 1734.26,278.941 1761.5,273.5 Z"/></g>
<g><path style="opacity:1" fill="#010101" d="M 771.5,324.5 C 782.306,323.894 792.973,324.727 803.5,327C 816.892,332.743 824.726,342.91 827,357.5C 827.5,375.83 827.667,394.164 827.5,412.5C 848.503,412.333 869.503,412.5 890.5,413C 906.857,416.704 915.19,427.037 915.5,444C 915.632,461.864 906.965,472.531 889.5,476C 868.836,476.5 848.169,476.667 827.5,476.5C 827.333,515.501 827.5,554.501 828,593.5C 831.056,613.556 842.556,625.39 862.5,629C 875.352,630.174 888.019,629.174 900.5,626C 912.218,624.047 919.385,628.881 922,640.5C 923.642,653.524 922.308,666.19 918,678.5C 912.624,688.625 904.124,694.458 892.5,696C 858.911,704.021 826.245,701.355 794.5,688C 768.34,674.86 751.84,654.026 745,625.5C 743.2,615.899 741.866,606.232 741,596.5C 740.5,556.501 740.333,516.501 740.5,476.5C 729.828,476.667 719.161,476.5 708.5,476C 691.05,472.543 682.383,461.877 682.5,444C 682.824,427.026 691.157,416.692 707.5,413C 718.495,412.5 729.495,412.333 740.5,412.5C 740.333,394.497 740.5,376.497 741,358.5C 744.014,340.657 754.181,329.324 771.5,324.5 Z"/></g>
<g><path style="opacity:1" fill="#010101" d="M 564.5,406.5 C 635.936,400.44 674.436,433.107 680,504.5C 680.667,556.5 680.667,608.5 680,660.5C 677.816,684.018 664.982,696.851 641.5,699C 613.833,701.321 598,688.821 594,661.5C 593.667,612.167 593.333,562.833 593,513.5C 588.264,482.188 570.097,469.021 538.5,474C 514.322,479.176 498.822,493.676 492,517.5C 490.691,565.463 490.024,613.463 490,661.5C 488.781,682.382 477.948,694.882 457.5,699C 438.849,702.561 423.349,697.395 411,683.5C 407.49,677.64 405.157,671.307 404,664.5C 403.333,590.833 403.333,517.167 404,443.5C 407.489,419.35 421.489,407.35 446,407.5C 474.569,408.738 488.902,423.738 489,452.5C 507.484,426.335 532.651,411.002 564.5,406.5 Z"/></g>
<g><path style="opacity:1" fill="#000000" d="M 1043.5,406.5 C 1077.03,403.97 1108.03,411.47 1136.5,429C 1168.54,453.892 1186.37,486.725 1190,527.5C 1190.91,538.559 1190.57,549.559 1189,560.5C 1184.99,566.926 1179.16,570.426 1171.5,571C 1112.83,571.5 1054.17,571.667 995.5,571.5C 1000.57,610.066 1022.57,631.233 1061.5,635C 1080.84,636.138 1099.84,634.138 1118.5,629C 1129.4,625.55 1140.06,621.55 1150.5,617C 1168.16,614.407 1179.66,621.573 1185,638.5C 1187,652.827 1182.5,664.66 1171.5,674C 1145,689.464 1116.33,698.13 1085.5,700C 1046.31,703.075 1009.64,695.075 975.5,676C 939.124,652.45 918.624,618.95 914,575.5C 906.397,521.633 922.231,476.133 961.5,439C 985.585,419.808 1012.92,408.975 1043.5,406.5 Z"/></g>
<g><path style="opacity:1" fill="#000000" d="M 1377.5,406.5 C 1405.05,402.053 1418.71,413.72 1418.5,441.5C 1419.89,465.611 1408.56,478.777 1384.5,481C 1371.7,482.213 1359.04,484.213 1346.5,487C 1321.36,495.427 1307.86,512.927 1306,539.5C 1305.67,581.833 1305.33,624.167 1305,666.5C 1302.67,680.36 1295.17,690.193 1282.5,696C 1264.97,701.968 1248.3,700.301 1232.5,691C 1223.54,683.255 1218.71,673.422 1218,661.5C 1217.33,588.5 1217.33,515.5 1218,442.5C 1221.99,418.847 1235.99,407.181 1260,407.5C 1282.74,406.924 1296.74,417.59 1302,439.5C 1302.33,446.5 1302.67,453.5 1303,460.5C 1313.42,436.75 1330.92,420.583 1355.5,412C 1362.98,410.263 1370.32,408.429 1377.5,406.5 Z"/></g>
<g><path style="opacity:1" fill="#010101" d="M 2101.5,571.5 C 2043.83,571.5 1986.17,571.5 1928.5,571.5C 1928.26,572.791 1928.6,573.791 1929.5,574.5C 1934.07,608.575 1953.41,628.409 1987.5,634C 2020.03,637.496 2051.03,632.162 2080.5,618C 2103.6,612.948 2116.6,622.114 2119.5,645.5C 2118.9,659.544 2112.57,670.044 2100.5,677C 2052.99,700.989 2003.32,706.656 1951.5,694C 1889.28,676.449 1854.44,635.615 1847,571.5C 1841.44,525.187 1853.78,484.52 1884,449.5C 1922.71,412.689 1968.54,399.189 2021.5,409C 2078.75,422.582 2112.25,458.416 2122,516.5C 2124.33,529.407 2125,542.407 2124,555.5C 2122.78,560.789 2119.94,564.955 2115.5,568C 2110.98,569.797 2106.31,570.964 2101.5,571.5 Z"/></g>
<g><path style="opacity:1" fill="#000000" d="M 2704.5,657.5 C 2704.44,656.957 2704.11,656.624 2703.5,656.5C 2702.5,692.494 2702.17,728.494 2702.5,764.5C 2701.73,785.435 2691.07,797.935 2670.5,802C 2656.59,804.45 2643.59,802.117 2631.5,795C 2623.42,788.002 2618.58,779.169 2617,768.5C 2616.33,659.167 2616.33,549.833 2617,440.5C 2620.42,422.746 2630.92,411.913 2648.5,408C 2662.39,405.608 2675.39,407.942 2687.5,415C 2696.02,422.197 2700.68,431.364 2701.5,442.5C 2701.18,445.898 2701.51,449.232 2702.5,452.5C 2703.11,452.376 2703.44,452.043 2703.5,451.5C 2713.14,435.701 2726.48,423.868 2743.5,416C 2787.6,398.599 2828.6,403.932 2866.5,432C 2900.07,464.191 2915.74,503.691 2913.5,550.5C 2915.01,585.142 2907.17,617.476 2890,647.5C 2866.11,682.867 2832.61,700.533 2789.5,700.5C 2760.38,700.188 2735.21,690.188 2714,670.5C 2710.34,666.492 2707.17,662.159 2704.5,657.5 Z"/></g>
<g><path style="opacity:1" fill="#000000" d="M 3027.5,444.5 C 3027.33,449.844 3027.5,455.177 3028,460.5C 3028.72,459.956 3029.22,459.289 3029.5,458.5C 3040.47,434.319 3058.8,418.485 3084.5,411C 3098.6,406.456 3112.93,405.456 3127.5,408C 3136.42,412.311 3141.59,419.477 3143,429.5C 3143.86,439.219 3143.53,448.885 3142,458.5C 3138.4,469.096 3131.24,475.929 3120.5,479C 3108.61,481.445 3096.61,483.111 3084.5,484C 3055.2,488.197 3037.7,504.697 3032,533.5C 3031.96,578.528 3031.3,623.528 3030,668.5C 3023.51,689.789 3009.01,700.123 2986.5,699.5C 2973,699.667 2961.5,695 2952,685.5C 2948.86,680.892 2946.53,675.892 2945,670.5C 2943.35,592.869 2943.01,515.202 2944,437.5C 2947.96,421.211 2958.12,411.378 2974.5,408C 2988.91,405.732 3002.24,408.398 3014.5,416C 3022.97,423.565 3027.3,433.065 3027.5,444.5 Z"/></g>
<g><path style="opacity:1" fill="#010101" d="M 3266.5,406.5 C 3296.09,404.117 3324.09,409.617 3350.5,423C 3385.23,443.765 3405.73,474.265 3412,514.5C 3414.33,527.751 3415.33,541.084 3415,554.5C 3412.51,564.648 3406.01,570.148 3395.5,571C 3336.83,571.5 3278.17,571.667 3219.5,571.5C 3224.58,610.078 3246.58,631.244 3285.5,635C 3304.06,635.925 3322.4,634.259 3340.5,630C 3352.05,626.222 3363.39,621.889 3374.5,617C 3391.66,614.489 3403.16,621.322 3409,637.5C 3411.37,652.247 3406.87,664.413 3395.5,674C 3369.28,689.309 3340.95,697.976 3310.5,700C 3273.17,702.718 3237.84,695.718 3204.5,679C 3163.37,654.286 3140.87,617.786 3137,569.5C 3131.47,515.102 3149.3,470.269 3190.5,435C 3213.25,418.451 3238.59,408.951 3266.5,406.5 Z"/></g>
<g><path style="opacity:1" fill="#010101" d="M 3529.5,657.5 C 3529.44,656.957 3529.11,656.624 3528.5,656.5C 3527.5,692.494 3527.17,728.494 3527.5,764.5C 3525.18,790.48 3510.84,803.146 3484.5,802.5C 3459.3,802.794 3445.13,790.46 3442,765.5C 3441.01,655.798 3441.34,546.132 3443,436.5C 3447.4,420.767 3457.57,411.267 3473.5,408C 3486.03,406.164 3498.03,407.831 3509.5,413C 3520.23,420.299 3525.9,430.465 3526.5,443.5C 3526.18,446.572 3526.52,449.572 3527.5,452.5C 3528.11,452.376 3528.44,452.043 3528.5,451.5C 3542.83,429.048 3563.16,414.881 3589.5,409C 3667.24,399.403 3715.74,432.569 3735,508.5C 3743.04,549.455 3739.7,589.455 3725,628.5C 3703.96,675.001 3667.79,699.001 3616.5,700.5C 3583.48,700.904 3555.98,688.904 3534,664.5C 3532.28,662.283 3530.78,659.95 3529.5,657.5 Z"/></g>
<g><path style="opacity:1" fill="#010101" d="M 306.5,407.5 C 320.617,405.688 333.617,408.522 345.5,416C 353.636,423.772 358.47,433.272 360,444.5C 360.975,518.19 360.642,591.857 359,665.5C 354.009,688.475 339.676,699.475 316,698.5C 289.86,697.361 275.86,683.694 274,657.5C 273.333,586.5 273.333,515.5 274,444.5C 276.635,424.712 287.469,412.379 306.5,407.5 Z"/></g>
<g><path style="opacity:1" fill="#010101" d="M 1456.5,407.5 C 1476.05,403.716 1491.55,409.716 1503,425.5C 1525.59,480.261 1547.59,535.261 1569,590.5C 1591.19,537.615 1613.19,484.615 1635,431.5C 1645.22,411.808 1661.39,403.975 1683.5,408C 1704.03,414.226 1712.87,428.06 1710,449.5C 1679.56,521.057 1648.56,592.39 1617,663.5C 1606.35,689.808 1586.85,701.641 1558.5,699C 1537.43,693.94 1523.27,681.107 1516,660.5C 1485.78,591.399 1456.12,522.065 1427,452.5C 1422.31,427.856 1432.15,412.856 1456.5,407.5 Z"/></g>
<g><path style="opacity:1" fill="#000000" d="M 1762.5,407.5 C 1791.19,403.084 1809.03,414.751 1816,442.5C 1816.67,515.833 1816.67,589.167 1816,662.5C 1811.83,686.852 1797.33,698.852 1772.5,698.5C 1749.06,698.199 1735.22,686.532 1731,663.5C 1730.33,589.5 1730.33,515.5 1731,441.5C 1734.48,423.45 1744.98,412.117 1762.5,407.5 Z"/></g>
<g><path style="opacity:1" fill="#010101" d="M 2157.5,407.5 C 2176.1,403.903 2190.93,409.569 2202,424.5C 2224.45,480.068 2245.78,536.068 2266,592.5C 2286.85,537.611 2307.52,482.611 2328,427.5C 2338.83,409.213 2354.66,403.046 2375.5,409C 2387.77,413.94 2395.94,422.774 2400,435.5C 2419.14,488.577 2438.47,541.577 2458,594.5C 2476.72,545.021 2495.05,495.354 2513,445.5C 2515.95,436.942 2519.95,428.942 2525,421.5C 2537.64,408.631 2552.8,404.464 2570.5,409C 2581.95,413.377 2589.11,421.544 2592,433.5C 2592.57,441.264 2591.9,448.931 2590,456.5C 2562.47,524.754 2535.14,593.087 2508,661.5C 2494.54,694.645 2470.71,705.812 2436.5,695C 2423.29,688.102 2414.12,677.602 2409,663.5C 2392.53,620.421 2375.86,577.421 2359,534.5C 2341.33,580.833 2323.67,627.167 2306,673.5C 2290.73,697.204 2269.56,704.704 2242.5,696C 2228.18,689.343 2218.35,678.51 2213,663.5C 2186.33,597.5 2159.67,531.5 2133,465.5C 2128.37,455.621 2126.7,445.288 2128,434.5C 2132.63,419.699 2142.46,410.699 2157.5,407.5 Z"/></g>
<g><path style="opacity:1" fill="#646464" d="M 2701.5,442.5 C 2702.17,445.5 2702.83,448.5 2703.5,451.5C 2703.44,452.043 2703.11,452.376 2702.5,452.5C 2701.51,449.232 2701.18,445.898 2701.5,442.5 Z"/></g>
<g><path style="opacity:1" fill="#898989" d="M 3027.5,444.5 C 3028.17,449.167 3028.83,453.833 3029.5,458.5C 3029.22,459.289 3028.72,459.956 3028,460.5C 3027.5,455.177 3027.33,449.844 3027.5,444.5 Z"/></g>
<g><path style="opacity:1" fill="#535353" d="M 3526.5,443.5 C 3527.17,446.167 3527.83,448.833 3528.5,451.5C 3528.44,452.043 3528.11,452.376 3527.5,452.5C 3526.52,449.572 3526.18,446.572 3526.5,443.5 Z"/></g>
<g><path style="opacity:1" fill="#f8f8f8" d="M 1118.5,526.5 C 1077.5,526.5 1036.5,526.5 995.5,526.5C 995.5,525.5 995.5,524.5 995.5,523.5C 1002.73,481.223 1027.73,461.39 1070.5,464C 1094.54,468.042 1109.71,481.875 1116,505.5C 1117.57,512.412 1118.41,519.412 1118.5,526.5 Z"/></g>
<g><path style="opacity:1" fill="#f8f8f8" d="M 1983.5,463.5 C 2027.77,461.101 2050.77,482.101 2052.5,526.5C 2011.17,526.5 1969.83,526.5 1928.5,526.5C 1932.44,492.584 1950.77,471.584 1983.5,463.5 Z"/></g>
<g><path style="opacity:1" fill="#f8f8f8" d="M 3273.5,463.5 C 3317.84,461.18 3340.84,482.18 3342.5,526.5C 3301.5,526.5 3260.5,526.5 3219.5,526.5C 3222.53,492.478 3240.53,471.478 3273.5,463.5 Z"/></g>
<g><path style="opacity:1" fill="#f9f9f9" d="M 2753.5,471.5 C 2796.33,469.483 2820.49,489.817 2826,532.5C 2827.03,549.573 2826.36,566.573 2824,583.5C 2814.4,622.107 2789.9,638.94 2750.5,634C 2725.24,626.4 2710.07,609.566 2705,583.5C 2701.35,561.411 2701.68,539.411 2706,517.5C 2712.93,492.734 2728.76,477.4 2753.5,471.5 Z"/></g>
<g><path style="opacity:1" fill="#f9f9f9" d="M 3578.5,471.5 C 3620.89,469.382 3645.05,489.382 3651,531.5C 3651.67,544.833 3651.67,558.167 3651,571.5C 3649.55,592.572 3641.05,610.072 3625.5,624C 3604.33,637.782 3582.33,639.115 3559.5,628C 3539.49,613.822 3528.99,594.322 3528,569.5C 3527.33,557.833 3527.33,546.167 3528,534.5C 3529.34,513.982 3537.51,496.816 3552.5,483C 3560.44,477.307 3569.1,473.473 3578.5,471.5 Z"/></g>
<g><path style="opacity:1" fill="#3e3e3e" d="M 995.5,523.5 C 995.5,524.5 995.5,525.5 995.5,526.5C 1036.5,526.5 1077.5,526.5 1118.5,526.5C 1077.34,527.499 1036,527.832 994.5,527.5C 994.232,525.901 994.566,524.568 995.5,523.5 Z"/></g>
<g><path style="opacity:1" fill="#bbbbbb" d="M 2101.5,571.5 C 2043.99,571.834 1986.66,572.834 1929.5,574.5C 1928.6,573.791 1928.26,572.791 1928.5,571.5C 1986.17,571.5 2043.83,571.5 2101.5,571.5 Z"/></g>
<g><path style="opacity:1" fill="#2d2d2d" d="M 2704.5,657.5 C 2703.83,693.167 2703.17,728.833 2702.5,764.5C 2702.17,728.494 2702.5,692.494 2703.5,656.5C 2704.11,656.624 2704.44,656.957 2704.5,657.5 Z"/></g>
<g><path style="opacity:1" fill="#212121" d="M 3529.5,657.5 C 3528.83,693.167 3528.17,728.833 3527.5,764.5C 3527.17,728.494 3527.5,692.494 3528.5,656.5C 3529.11,656.624 3529.44,656.957 3529.5,657.5 Z"/></g>
</svg>
